<svg xmlns="http://www.w3.org/2000/svg" width="32" height="32" fill="none"><g clip-path="url(#a)"><path fill="#F0F0F0" d="M16 32c8.837 0 16-7.163 16-16S24.837 0 16 0 0 7.163 0 16s7.163 16 16 16Z"/><path fill="#0052B4" d="M3.308 6.259A15.942 15.942 0 0 0 .55 11.826h8.324L3.308 6.26ZM31.449 11.826a15.944 15.944 0 0 0-2.756-5.567l-5.568 5.567h8.324ZM.551 20.174a15.943 15.943 0 0 0 2.757 5.567l5.567-5.567H.55ZM25.741 3.308A15.943 15.943 0 0 0 20.174.55v8.324l5.567-5.567ZM6.259 28.692a15.944 15.944 0 0 0 5.567 2.757v-8.324L6.26 28.692ZM11.826.551A15.943 15.943 0 0 0 6.26 3.308l5.567 5.567V.55ZM20.174 31.449a15.946 15.946 0 0 0 5.567-2.757l-5.567-5.567v8.324ZM23.125 20.174l5.568 5.567a15.944 15.944 0 0 0 2.756-5.567h-8.324Z"/><path fill="#D80027" d="M31.865 13.913H18.087V.135a16.16 16.16 0 0 0-4.174 0v13.778H.135a16.16 16.16 0 0 0 0 4.174h13.778v13.778a16.166 16.166 0 0 0 4.174 0V18.087h13.778a16.166 16.166 0 0 0 0-4.174Z"/><path fill="#D80027" d="m20.174 20.174 7.14 7.14c.328-.329.641-.672.94-1.027l-6.113-6.113h-1.967ZM11.826 20.174l-7.14 7.14c.329.328.672.641 1.027.94l6.113-6.113v-1.967ZM11.826 11.826l-7.14-7.14c-.328.329-.641.672-.94 1.027l6.113 6.113h1.967ZM20.174 11.826l7.14-7.14a16.017 16.017 0 0 0-1.027-.94l-6.113 6.113v1.967Z"/></g><defs><clipPath id="a"><path fill="#fff" d="M0 0h32v32H0z"/></clipPath></defs></svg>